<svg width="132" height="124" viewBox="0 0 132 124" fill="none" xmlns="http://www.w3.org/2000/svg">
<path d="M52.369 0.00493041C46.3651 1.34157 40.4203 3.19918 34.8486 6.00394C34.9746 10.9238 35.2923 15.6354 35.9387 20.4238C33.7749 21.8098 31.5015 22.9985 29.4856 24.62C27.4313 26.1977 25.3327 27.7096 23.4756 29.5563C19.761 27.1021 15.8272 24.7958 11.7789 22.7575C7.41289 27.4521 3.33065 32.5204 0 38.1957C2.50895 42.2555 5.12745 46.0578 7.95467 49.6678H8.03137V84.489C8.0971 84.489 8.15736 84.489 8.2231 84.5055L29.5672 86.5652C30.6847 86.6748 31.5612 87.5732 31.6379 88.6967L32.2953 98.1195L50.9174 99.4452L52.1992 90.7515C52.3636 89.6231 53.3332 88.7904 54.4726 88.7904H76.9951C78.1345 88.7904 79.1041 89.6231 79.2685 90.7515L80.5503 99.4452L99.1718 98.1195L99.8292 88.6973C99.8662 88.1544 100.095 87.6422 100.474 87.2519C100.853 86.8616 101.358 86.6185 101.9 86.5658L123.239 84.506C123.305 84.506 123.365 84.4896 123.431 84.4896V81.7117H123.442V49.6733H123.518C126.345 46.0633 128.964 42.261 131.473 38.2012C128.143 32.5259 124.055 27.4582 119.689 22.7575C115.641 24.7953 111.707 27.1015 107.992 29.5563C106.135 27.7102 104.042 26.1982 101.988 24.6205C99.9667 22.999 97.6928 21.8098 95.5344 20.4238C96.1754 15.6354 96.4931 10.9238 96.6246 6.00394C91.0528 3.19918 85.1141 1.34212 79.1041 0.00547798C76.7047 4.03732 74.5135 8.40333 72.6011 12.6713C70.3332 12.2933 68.0598 12.1563 65.7749 12.1289H65.6873C63.4029 12.1563 61.1295 12.2933 58.8611 12.6713C56.9492 8.40387 54.758 4.03787 52.3526 0.00547798L52.3581 0L52.369 0.00493041ZM35.4786 50.9831C42.5842 50.9831 48.3476 56.7411 48.3476 63.8467C48.3476 70.9522 42.5847 76.7102 35.4786 76.7102C28.379 76.7102 22.615 70.9528 22.615 63.8467C22.615 56.7416 28.373 50.9831 35.4786 50.9831ZM96.0055 50.9831C103.105 50.9831 108.869 56.7411 108.869 63.8467C108.869 70.9522 103.111 76.7102 96.0055 76.7102C88.9 76.7102 83.1365 70.9528 83.1365 63.8467C83.1365 56.7416 88.8939 50.9831 96.0055 50.9831ZM36.7111 56.0782C31.9945 56.0782 28.1709 59.9019 28.1709 64.6191C28.1709 69.3362 31.9945 73.1549 36.7111 73.1549C41.4283 73.1549 45.2525 69.3313 45.2525 64.6191C45.2525 59.9079 41.4338 56.0782 36.7111 56.0782ZM94.7675 56.0782C90.0503 56.0782 86.2316 59.9019 86.2316 64.6191C86.2316 69.3362 90.0498 73.1549 94.767 73.1549C99.4841 73.1549 103.308 69.3313 103.308 64.6191C103.308 59.9079 99.4907 56.0782 94.7675 56.0782ZM65.7421 58.5598C68.0264 58.5598 69.8889 60.247 69.8889 62.3238V74.1684C69.8889 76.2446 68.0319 77.9318 65.7421 77.9318C63.4522 77.9318 61.6007 76.2446 61.6007 74.1684V62.3232C61.6007 60.247 63.4577 58.5598 65.7421 58.5598ZM7.9985 89.0966C8.00945 91.1618 8.03137 93.4188 8.03137 93.868C8.03137 114.144 33.7475 123.885 65.6982 124H65.7749C97.7256 123.89 123.436 114.144 123.436 93.8685C123.436 93.4084 123.464 91.1569 123.475 89.0972L104.289 90.9487L103.626 100.42C103.587 100.973 103.35 101.493 102.959 101.886C102.567 102.278 102.048 102.517 101.495 102.557L78.5892 104.179C78.0383 104.178 77.506 103.98 77.0888 103.62C76.6717 103.26 76.3974 102.762 76.3158 102.218L75.012 93.3755H56.4617L55.1579 102.218C55.0734 102.791 54.7751 103.312 54.3228 103.674C53.8706 104.037 53.2979 104.215 52.7196 104.173L29.9786 102.552C28.8392 102.47 27.9244 101.56 27.8477 100.421L27.1903 90.9482L7.99302 89.1021L7.9985 89.0966Z" fill="#777777"/>
</svg>
