<svg width="125" height="119" viewBox="0 0 125 119" fill="none" xmlns="http://www.w3.org/2000/svg">
<path d="M1.64474 0H24.6711L32.8947 6.61111L44.4079 19.8333L57.5658 31.4028L64.1447 36.3611L87.1711 14.875L98.6842 24.7917L106.908 33.0556V38.0139L98.6842 46.2778L83.8816 59.5L75.6579 67.7639L62.5 79.3333L50.9868 92.5556L41.1184 100.819L32.8947 109.083H27.9605V104.125H19.7368L16.4474 100.819V92.5556H11.5132L13.1579 85.9444L21.3816 79.3333L31.25 67.7639L39.4737 61.1528L6.57895 28.0972L0 23.1389V1.65278L1.64474 0ZM14.8026 13.2222L16.4474 21.4861L26.3158 29.75H31.25L29.6053 23.1389L21.3816 13.2222H14.8026Z" fill="#737373"/>
<path d="M87.1711 64.4583L93.75 66.1111L115.132 87.5972L118.421 95.8611V105.778H121.711L125 110.736V119H115.132L110.197 115.694L93.75 112.389L83.8816 104.125L77.3026 95.8611L67.4342 87.5972L70.7237 80.9861L87.1711 64.4583Z" fill="#737373"/>
<path d="M101.974 0H115.132L125 8.26389V19.8333L116.776 28.0972L110.197 29.75L93.75 13.2222L95.3947 6.61111L101.974 0Z" fill="#737373"/>
<path d="M3.28947 102.472L11.5132 104.125L18.0921 110.736V115.694L11.5132 119H0V109.083L3.28947 102.472Z" fill="#737373"/>
</svg>
