<svg width="1081" height="547" viewBox="0 0 1081 547" fill="none" xmlns="http://www.w3.org/2000/svg">
<path d="M993.079 85.0637C1039.81 49.7114 1066.54 40.4605 1076.58 36.5637L1046.45 134.299M993.079 85.0637C1014.34 96.6272 1032.01 117.357 1046.45 134.299M993.079 85.0637C988.233 82.4282 983.21 79.8014 978.079 77.3559M1046.45 134.299C1046.45 134.299 1069.11 179.739 1046.45 213.152C988.037 299.293 989.881 399.586 1018.17 450.655C1046.45 501.724 1071.05 522.029 1018.17 506.031C965.286 490.033 923.079 366.975 923.079 366.975C923.079 366.975 892.775 483.265 806.692 506.031C720.609 528.797 606.079 536.064 544.709 483.265C499.957 444.765 506.391 383.588 464.579 366.975C431.13 353.685 411.895 366.975 411.895 366.975C438.539 376.41 492.198 406.354 493.674 450.655C495.149 494.956 480.351 506.031 472.768 506.031L528.107 522.644L493.674 543.564L170.247 450.655L295.683 262.376C284 250.07 255.101 232.842 232.965 262.376C205.295 299.293 110.604 450.655 63.8731 450.655C17.1422 450.655 2.99998 393.85 3 366.975C3.00003 326.981 15.2976 262.376 63.8731 262.376C102.733 262.376 112.449 305.446 112.449 326.981C130.075 280.424 195.456 190.159 274.079 174.064C320.579 164.544 392.332 166.39 445.079 213.152C492.212 254.937 595.129 347.901 674.448 299.293C685.984 292.224 696.856 285.558 707.037 279.105M821.305 111.014C814.883 122.224 810.501 134.825 809.107 148.547C808.54 154.124 807.734 159.447 806.692 164.544M821.305 111.014L758.072 92.4445L806.692 164.544M821.305 111.014C829.945 95.9312 840.507 85.7699 852.079 78.9268M806.692 164.544C799.954 197.517 783.37 221.034 758.072 242.719M707.037 279.105C678.342 267.991 613.648 229.765 603.079 174.064C597.844 146.473 600.663 69.7894 637.555 53.1765C667.07 39.8862 703.962 36.5637 718.719 36.5637L674.448 64.867L732.862 53.1765L692.079 103.064C664.579 148.547 672.964 187.363 674.448 191.064C685.478 218.564 694.839 234.752 758.072 242.719M707.037 279.105C726.695 266.643 743.775 254.973 758.072 242.719M852.079 78.9268C877.416 63.9445 907.6 64.867 933.079 64.867C947.893 64.867 963.426 70.3718 978.079 77.3559M852.079 78.9268L890.579 12.5637M890.579 12.5637C904.413 7.56367 934.079 -0.936332 942.079 5.06367M890.579 12.5637L923.079 36.5637L942.079 5.06367M942.079 5.06367C950.079 11.0637 969.413 55.7585 978.079 77.3559" stroke="url(#paint0_linear_28_83)" stroke-width="5"/>
<defs>
<linearGradient id="paint0_linear_28_83" x1="539.079" y1="36.5637" x2="539.079" y2="543.564" gradientUnits="userSpaceOnUse">
<stop stop-color="white"/>
<stop offset="1" stop-color="#999999" stop-opacity="0"/>
</linearGradient>
</defs>
</svg>
