<svg width="225" height="225" viewBox="0 0 225 225" fill="none" xmlns="http://www.w3.org/2000/svg">
<g clip-path="url(#clip0_59_409)">
<path d="M-275.865 121.113C-323.76 130.91 -363.589 185.847 -374.326 214.183C-374.326 201.076 -380.245 174.862 -403.918 174.862C-433.509 174.862 -441 214.183 -441 238.524C-441 254.881 -432.385 289.453 -403.918 289.453C-375.45 289.453 -317.766 197.331 -300.911 174.862C-287.426 156.887 -269.821 167.373 -262.704 174.862L-339.117 289.453L-142.093 346L-121.117 333.268L-154.828 323.157C-150.208 323.157 -141.194 316.416 -142.093 289.453C-142.992 262.491 -175.679 244.266 -191.911 238.524C-191.911 238.524 -180.193 230.435 -159.816 238.524C-134.346 248.635 -138.265 285.869 -111.003 309.301C-73.6178 341.435 -3.84895 337.013 48.5909 323.157C101.031 309.301 119.491 309.301 119.491 309.301C119.491 309.301 145.203 313.42 177.416 323.157C209.629 332.893 194.646 320.535 177.416 289.453C160.186 258.371 159.062 197.331 194.646 144.904C208.449 124.567 194.646 96.912 194.646 96.912C185.85 86.6003 175.087 73.9838 162.134 66.9459C159.181 65.3419 156.122 63.7432 152.996 62.2548C144.07 58.0041 134.607 54.6538 125.583 54.6538C110.062 54.6538 91.6744 54.0923 76.2397 63.2109C69.1899 67.3758 62.7561 73.5601 57.4925 82.7399C53.5804 89.5626 50.9113 97.2318 50.0618 105.583C49.7165 108.978 49.2254 112.217 48.5909 115.32C44.4864 135.388 34.3838 149.7 18.9725 162.899C10.2633 170.357 -0.141316 177.46 -12.1169 185.044C-18.3187 188.972 -24.9419 193.029 -31.9691 197.331C-80.2887 226.915 -142.983 170.335 -171.695 144.904C-203.828 116.443 -247.538 115.32 -275.865 121.113Z" fill="#131313"/>
<path d="M50.0618 105.583C50.9113 97.2318 53.5804 89.5626 57.4925 82.7399L18.9725 71.4381L48.5909 115.32C49.2254 112.217 49.7165 108.978 50.0618 105.583Z" fill="#131313"/>
<path d="M76.2397 63.2109C91.6744 54.0923 110.062 54.6538 125.583 54.6538C134.607 54.6538 144.07 58.0041 152.996 62.2548C147.717 49.1101 135.939 21.9077 131.066 18.256L119.491 37.4277L99.6931 22.8207L76.2397 63.2109Z" fill="#131313"/>
<path d="M131.066 18.256C126.192 14.6043 108.12 19.7776 99.6931 22.8207L119.491 37.4277L131.066 18.256Z" fill="#131313"/>
<path d="M213 37.4277C206.882 39.7994 190.601 45.4297 162.134 66.9459C175.087 73.9838 185.85 86.6003 194.646 96.912L213 37.4277Z" fill="#131313"/>
<path d="M-75.4454 121.113C-69.0069 155.015 -29.5968 178.28 -12.1169 185.044C-0.141316 177.46 10.2633 170.357 18.9725 162.899C-19.5475 158.05 -25.2501 148.197 -31.9691 131.46C-32.8732 129.208 -37.981 105.583 -21.2286 77.9011L-99 37.4277H-125.969L-99 20.2015C-107.99 20.2015 -130.464 22.2237 -148.443 30.3125C-170.918 40.4235 -78.6346 104.321 -75.4454 121.113Z" fill="#131313"/>
<path d="M162.134 66.9459C190.601 45.4297 206.882 39.7994 213 37.4277L194.646 96.912M162.134 66.9459C175.087 73.9838 185.85 86.6003 194.646 96.912M162.134 66.9459C159.181 65.3419 156.122 63.7432 152.996 62.2548M194.646 96.912C194.646 96.912 208.449 124.567 194.646 144.904C159.062 197.331 160.186 258.371 177.416 289.453C194.646 320.535 209.629 332.893 177.416 323.157C145.203 313.42 119.491 309.301 119.491 309.301C119.491 309.301 101.031 309.301 48.5909 323.157C-3.84895 337.013 -73.6178 341.435 -111.003 309.301C-138.265 285.869 -134.346 248.635 -159.816 238.524C-180.193 230.435 -191.911 238.524 -191.911 238.524C-175.679 244.266 -142.992 262.491 -142.093 289.453C-141.194 316.416 -150.208 323.157 -154.828 323.157L-121.117 333.268L-142.093 346L-339.117 289.453L-262.704 174.862C-269.821 167.373 -287.426 156.887 -300.911 174.862C-317.766 197.331 -375.45 289.453 -403.918 289.453C-432.385 289.453 -441 254.881 -441 238.524C-441 214.183 -433.509 174.862 -403.918 174.862C-380.245 174.862 -374.326 201.076 -374.326 214.183C-363.589 185.847 -323.76 130.91 -275.865 121.113C-247.538 115.32 -203.828 116.443 -171.695 144.904C-142.983 170.335 -80.2887 226.915 -31.9691 197.331C-24.9419 193.029 -18.3187 188.972 -12.1169 185.044M57.4925 82.7399C53.5804 89.5626 50.9113 97.2318 50.0618 105.583C49.7165 108.978 49.2254 112.217 48.5909 115.32M57.4925 82.7399L18.9725 71.4381L48.5909 115.32M57.4925 82.7399C62.7561 73.5601 69.1899 67.3758 76.2397 63.2109M48.5909 115.32C44.4864 135.388 34.3838 149.7 18.9725 162.899M-12.1169 185.044C-29.5968 178.28 -69.0069 155.015 -75.4454 121.113C-78.6346 104.321 -170.918 40.4235 -148.443 30.3125C-130.464 22.2237 -107.99 20.2015 -99 20.2015L-125.969 37.4277H-99L-21.2286 77.9011C-37.981 105.583 -32.8732 129.208 -31.9691 131.46C-25.2501 148.197 -19.5475 158.05 18.9725 162.899M-12.1169 185.044C-0.141316 177.46 10.2633 170.357 18.9725 162.899M76.2397 63.2109C91.6744 54.0923 110.062 54.6538 125.583 54.6538C134.607 54.6538 144.07 58.0041 152.996 62.2548M76.2397 63.2109L99.6931 22.8207M99.6931 22.8207C108.12 19.7776 126.192 14.6043 131.066 18.256M99.6931 22.8207L119.491 37.4277L131.066 18.256M131.066 18.256C135.939 21.9077 147.717 49.1101 152.996 62.2548" stroke="#C4543D" stroke-width="12"/>
</g>
<defs>
<clipPath id="clip0_59_409">
<rect width="225" height="225" fill="white"/>
</clipPath>
</defs>
</svg>
