<svg width="147" height="124" viewBox="0 0 147 124" fill="none" xmlns="http://www.w3.org/2000/svg">
<path d="M76.6222 69.723C76.904 64.6345 79.305 60.1438 82.931 56.9634C86.7353 53.6819 91.5341 51.9021 96.4795 51.9385C101.686 51.9385 106.469 53.8467 110.022 56.9634C113.648 60.1438 116.043 64.6345 116.318 69.7167C116.594 74.9516 114.573 79.8048 111.02 83.4113C107.107 87.2921 101.89 89.4329 96.4795 89.3777C91.0653 89.4336 85.8438 87.2929 81.9265 83.4113C78.374 79.8048 76.3466 74.9516 76.6222 69.723ZM45.0171 80.0083C45.0539 82.0056 45.6664 85.8729 46.5851 88.9006C48.5686 95.4145 51.8986 101.4 56.3423 106.437C61.1079 111.878 66.9245 116.215 73.4127 119.165C80.4741 122.397 88.1133 124.045 95.8302 123.999C103.546 124.015 111.178 122.342 118.229 119.089C124.713 116.111 130.524 111.756 135.288 106.304C139.724 101.249 143.051 95.2552 145.039 88.7352C146.95 82.4184 147.473 75.7369 146.57 69.1824C145.71 62.9028 143.59 56.8808 140.347 51.5059C137.343 46.5061 133.501 42.1051 129.003 38.511H129.016L83.0902 1.89233L82.9677 1.79692C79.9542 -0.607436 74.8888 -0.594715 71.5752 1.80964C68.2248 4.23943 67.8451 8.26577 70.8218 10.8101L70.8157 10.8164L89.9625 26.9917L31.5911 27.0553H31.5115C26.685 27.0617 22.0483 30.3502 21.1296 34.5101C20.1863 38.74 23.4571 42.2511 28.4796 42.2702V42.2829L58.0634 42.2193L5.26581 84.3082L5.05756 84.4672C0.0779269 88.4236 -1.52683 95.0133 1.60918 99.1795C4.79419 103.422 11.5623 103.429 16.5971 99.205L45.4091 74.7226C45.4091 74.7226 44.9804 78.0302 45.0171 80.0083ZM119.069 91.0824C113.127 97.3667 104.822 100.929 95.8241 100.941C86.8204 100.967 78.5087 97.4303 72.5674 91.1587C69.7621 88.2339 67.5976 84.7147 66.2219 80.8416C64.9612 77.1975 64.4631 73.3162 64.761 69.4564C65.0588 65.5967 66.1457 61.8473 67.9492 58.4582C69.7433 55.1082 72.1409 52.1477 75.0113 49.7377C80.7811 44.8526 88.125 42.2129 95.8119 42.2002C103.505 42.1875 110.849 44.8081 116.625 49.6741C119.565 52.1611 121.953 55.1061 123.681 58.3692C125.469 61.7129 126.558 65.4103 126.878 69.2206C127.203 73.1252 126.703 77.0563 125.414 80.7398C124.038 84.6188 121.87 88.1458 119.069 91.0824Z" fill="#737373"/>
</svg>
